<svg width="473" height="399" viewBox="0 0 473 399" fill="none" xmlns="http://www.w3.org/2000/svg">
<path d="M385.672 231.85V33.2412L292.25 50.0836L194.317 54.576L99.0798 50.0836L12.6482 32.6362L12.6479 231.85C12.6478 318.559 82.9393 388.85 169.648 388.85H228.672C315.381 388.85 385.672 318.559 385.672 231.85Z" fill="white"/>
<path d="M338.576 44.1896C338.576 54.2546 276.021 62.4139 198.856 62.4139C121.692 62.4139 59.1372 54.2546 59.1372 44.1896C59.1372 34.1245 121.692 25.9652 198.856 25.9652C276.021 25.9652 338.576 34.1245 338.576 44.1896Z" fill="#E6E6E6"/>
<path d="M196.81 0.830933C305.071 0.830933 392.834 15.5334 392.834 33.6698L392.83 33.8827C392.147 51.9212 304.647 66.5087 196.81 66.5087V46.5087C250.185 46.5087 298.033 42.8755 332.115 37.1659C338.782 36.049 344.78 34.8728 350.093 33.6698C344.78 32.4668 338.782 31.2916 332.115 30.1747C298.033 24.4651 250.185 20.8309 196.81 20.8309C143.434 20.8309 95.5858 24.4651 61.5039 30.1747C54.8366 31.2916 48.838 32.4668 43.5254 33.6698C48.838 34.8728 54.8366 36.0489 61.5039 37.1659C95.5858 42.8755 143.434 46.5087 196.81 46.5087V66.5087L191.75 66.4979C85.8271 66.0484 0.785156 51.5229 0.785156 33.6698C0.78555 15.5334 88.5485 0.830933 196.81 0.830933Z" fill="#808080"/>
<path d="M0.132812 231.85V32.6362H20.1328V231.85C20.1328 313.036 85.9471 378.85 167.133 378.85H226.157C307.343 378.85 373.157 313.036 373.157 231.85V33.2407H393.157V231.85C393.157 324.081 318.388 398.85 226.157 398.85H167.133C74.9014 398.85 0.132837 324.082 0.132812 231.85Z" fill="#808080"/>
<path d="M447.41 181.021C447.41 153.231 424.881 130.702 397.091 130.702H382.177V105.702H397.091C438.689 105.702 472.41 139.424 472.41 181.021C472.41 222.619 438.689 256.341 397.091 256.341H382.177V231.341H397.091C424.881 231.341 447.41 208.812 447.41 181.021Z" fill="#808080"/>
<path d="M135.579 234.394C139.015 233.084 142.726 232.664 146.367 233.174C149.354 233.592 152.214 234.624 154.77 236.198L154.936 236.313C155.719 236.925 155.834 238.074 155.22 238.894L155.091 239.05C154.412 239.787 153.271 239.902 152.388 239.383C150.501 238.274 148.421 237.518 146.253 237.16L145.818 237.093C142.838 236.676 139.801 237.02 136.989 238.092L136.466 238.301C133.868 239.387 131.561 241.075 129.737 243.227C128.22 245.018 127.076 247.086 126.362 249.309C126.029 250.35 124.995 251.048 123.924 250.831C122.853 250.615 122.15 249.567 122.463 248.52C123.268 245.824 124.59 243.304 126.358 241.104L126.718 240.668C129.095 237.863 132.144 235.704 135.579 234.394Z" fill="#808080"/>
<path d="M258.21 234.394C254.774 233.084 251.063 232.664 247.422 233.174C244.435 233.592 241.575 234.624 239.019 236.198L238.853 236.313C238.07 236.925 237.955 238.074 238.569 238.894L238.698 239.05C239.377 239.787 240.518 239.902 241.401 239.383C243.288 238.274 245.368 237.518 247.536 237.16L247.971 237.093C250.951 236.676 253.988 237.02 256.8 238.092L257.323 238.301C259.921 239.387 262.228 241.075 264.052 243.227C265.569 245.018 266.714 247.086 267.427 249.309C267.76 250.35 268.794 251.048 269.865 250.831C270.936 250.615 271.639 249.567 271.326 248.52C270.521 245.824 269.199 243.304 267.431 241.104L267.071 240.668C264.694 237.863 261.645 235.704 258.21 234.394Z" fill="#808080"/>
<path d="M157.154 257.346C157.154 264.13 151.654 269.629 144.87 269.629C138.087 269.629 132.587 264.13 132.587 257.346C132.587 250.562 138.087 245.063 144.87 245.063C151.654 245.063 157.154 250.562 157.154 257.346Z" fill="#808080"/>
<path d="M260.728 258.463C260.728 265.247 255.228 270.746 248.445 270.746C241.661 270.746 236.162 265.247 236.162 258.463C236.162 251.679 241.661 246.18 248.445 246.18C255.228 246.18 260.728 251.679 260.728 258.463Z" fill="#808080"/>
<path d="M167.396 278.102C167.396 275.893 169.187 274.102 171.396 274.102C173.606 274.102 175.396 275.893 175.396 278.102C175.396 289.143 184.347 298.093 195.388 298.093H197.928C208.969 298.093 217.919 289.143 217.919 278.102C217.919 275.893 219.71 274.102 221.919 274.102C224.128 274.102 225.919 275.893 225.919 278.102C225.919 293.561 213.387 306.093 197.928 306.093H195.388C179.929 306.093 167.396 293.561 167.396 278.102Z" fill="#808080"/>
<path d="M280.11 284.721C280.11 287.982 272.493 290.626 263.096 290.626C253.699 290.626 246.082 287.982 246.082 284.721C246.082 281.46 253.699 278.816 263.096 278.816C272.493 278.816 280.11 281.46 280.11 284.721Z" fill="#E6E6E6"/>
<path d="M150.049 284.721C150.049 287.982 142.431 290.626 133.034 290.626C123.638 290.626 116.02 287.982 116.02 284.721C116.02 281.46 123.638 278.816 133.034 278.816C142.431 278.816 150.049 281.46 150.049 284.721Z" fill="#E6E6E6"/>
</svg>
